<svg width="18" height="21" viewBox="0 0 18 21" fill="none" xmlns="http://www.w3.org/2000/svg">
<path d="M6.65625 2.0625L6.03125 3H11.9297L11.3047 2.0625C11.1875 1.86719 10.9922 1.75 10.7969 1.75H7.16406C6.96875 1.75 6.77344 1.86719 6.65625 2.0625ZM12.3984 1.39844L13.375 3H15.25H16.5H17.125C17.4375 3 17.75 3.3125 17.75 3.625C17.75 3.97656 17.4375 4.25 17.125 4.25H16.5V17.375C16.5 19.1328 15.0938 20.5 13.375 20.5H4.625C2.86719 20.5 1.5 19.1328 1.5 17.375V4.25H0.875C0.523438 4.25 0.25 3.97656 0.25 3.625C0.25 3.3125 0.523438 3 0.875 3H1.5H2.75H4.58594L5.60156 1.39844C5.91406 0.851562 6.53906 0.5 7.16406 0.5H10.7969C11.4219 0.5 12.0469 0.851562 12.3594 1.39844H12.3984ZM2.75 4.25V17.375C2.75 18.4297 3.57031 19.25 4.625 19.25H13.375C14.3906 19.25 15.25 18.4297 15.25 17.375V4.25H2.75ZM5.875 7.375V16.125C5.875 16.4766 5.5625 16.75 5.25 16.75C4.89844 16.75 4.625 16.4766 4.625 16.125V7.375C4.625 7.0625 4.89844 6.75 5.25 6.75C5.5625 6.75 5.875 7.0625 5.875 7.375ZM9.625 7.375V16.125C9.625 16.4766 9.3125 16.75 9 16.75C8.64844 16.75 8.375 16.4766 8.375 16.125V7.375C8.375 7.0625 8.64844 6.75 9 6.75C9.3125 6.75 9.625 7.0625 9.625 7.375ZM13.375 7.375V16.125C13.375 16.4766 13.0625 16.75 12.75 16.75C12.3984 16.75 12.125 16.4766 12.125 16.125V7.375C12.125 7.0625 12.3984 6.75 12.75 6.75C13.0625 6.75 13.375 7.0625 13.375 7.375Z" fill="#FD7166"/>
</svg>
